<svg  viewBox="0 0 696 145" fill="none" xmlns="http://www.w3.org/2000/svg">
<path d="M75.2541 73.4529V122.513C75.2541 134.142 75.7993 140.32 83.2491 140.32V142.5H58.174V140.32C65.6239 140.32 66.169 134.142 66.169 122.513V75.6333C66.169 60.3702 59.9911 53.1021 47.6353 53.1021C37.6416 53.1021 28.0113 58.7349 19.1079 66.3664V122.513C19.1079 134.142 19.653 140.32 27.1028 140.32V142.5H2.02778V140.32C9.47761 140.32 10.0227 134.142 10.0227 122.513V70.1822C10.0227 58.5532 6.93377 54.1923 0.755859 53.1021V50.9217L17.6542 45.4706H19.1079V62.0056C28.9198 52.0119 40.5488 45.1072 52.5412 45.1072C66.3507 45.1072 75.2541 54.9191 75.2541 73.4529Z" fill="white"/>
<path d="M158.542 120.514L161.813 122.513C155.998 131.598 144.915 144.68 126.381 144.68C103.668 144.68 88.7683 123.966 88.7683 96.7109C88.7683 65.4579 108.392 45.1072 130.56 45.1072C148.185 45.1072 162.903 58.1898 161.631 82.1746H99.4888C98.9437 85.627 98.5803 89.261 98.5803 92.8951C98.5803 116.153 109.846 137.049 130.378 137.049C143.643 137.049 152.364 128.146 158.542 120.514ZM129.833 49.8315C115.115 49.8315 104.576 60.9153 100.579 76.7235H149.639C150.729 59.8251 144.006 49.8315 129.833 49.8315Z" fill="white"/>
<path d="M291.978 73.4529V122.513C291.978 134.142 292.523 140.32 299.973 140.32V142.5H274.898V140.32C282.347 140.32 282.893 134.142 282.893 122.513V75.6333C282.893 60.3702 276.715 53.1021 264.359 53.1021C254.183 53.1021 246.552 58.9166 237.648 66.7298C237.83 68.9103 238.012 71.0907 238.012 73.4529V122.513C238.012 134.142 238.557 140.32 246.007 140.32V142.5H220.932V140.32C228.382 140.32 228.927 134.142 228.927 122.513V75.6333C228.927 60.3702 222.749 53.1021 210.393 53.1021C200.399 53.1021 192.768 58.7349 184.046 66.3664V122.513C184.046 134.142 184.591 140.32 192.041 140.32V142.5H166.966V140.32C174.416 140.32 174.961 134.142 174.961 122.513V70.1822C174.961 58.5532 171.872 54.1923 165.694 53.1021V50.9217L182.592 45.4706H184.046V61.8239C193.495 51.8302 203.307 45.1072 215.299 45.1072C226.201 45.1072 234.014 51.2851 236.922 62.9141C246.552 52.3753 256.909 45.1072 269.265 45.1072C283.074 45.1072 291.978 54.9191 291.978 73.4529Z" fill="white"/>
<path d="M402.842 49.4681V47.2876H427.19V49.4681C421.558 50.5583 417.56 55.646 410.474 76.9052L388.306 143.954H384.672L362.322 76.9052L338.701 143.954H335.067L309.81 68.9103C304.722 53.8289 301.452 50.5583 295.274 49.4681V47.2876H322.893V49.4681C314.534 50.1949 314.534 54.374 317.805 64.0043L339.246 127.782L359.597 68.9103C354.691 54.0106 351.238 50.5583 344.879 49.4681V47.2876H372.316V49.4681C363.776 50.1949 364.321 54.374 367.592 64.0043L388.851 127.237L405.568 75.2699C411.746 55.8277 412.291 50.1949 402.842 49.4681Z" fill="white"/>
<path d="M465.65 144.68C440.939 144.68 422.768 125.783 422.768 95.2572C422.768 65.0945 441.666 45.1072 466.014 45.1072C490.725 45.1072 508.896 64.0043 508.896 94.5304C508.896 124.693 489.999 144.68 465.65 144.68ZM466.014 139.956C486.546 139.956 498.72 123.058 498.72 94.8938C498.72 67.8201 486.183 49.8315 465.65 49.8315C445.118 49.8315 432.944 66.7298 432.944 94.8938C432.944 121.968 445.481 139.956 466.014 139.956Z" fill="white"/>
<path d="M559.121 144.68C534.409 144.68 516.239 125.783 516.239 95.2572C516.239 65.0945 535.136 45.1072 559.484 45.1072C584.196 45.1072 602.366 64.0043 602.366 94.5304C602.366 124.693 583.469 144.68 559.121 144.68ZM559.484 139.956C580.017 139.956 592.191 123.058 592.191 94.8938C592.191 67.8201 579.653 49.8315 559.121 49.8315C538.589 49.8315 526.414 66.7298 526.414 94.8938C526.414 121.968 538.952 139.956 559.484 139.956Z" fill="white"/>
<path d="M686.57 0.408203V121.786C686.57 133.415 689.296 137.049 695.837 138.503V140.683L681.119 144.68H679.665L677.848 127.782C670.035 137.412 660.041 144.68 646.414 144.68C624.609 144.68 609.71 123.966 609.71 96.1657C609.71 65.8213 628.607 45.1072 652.592 45.1072C662.04 45.1072 670.762 48.3778 677.485 53.2838V23.6662C677.485 12.0372 674.396 7.67633 668.218 6.58612V4.40567L685.116 0.408203H686.57ZM651.138 137.412C662.404 137.412 670.944 130.508 677.485 122.694V75.6333C677.485 59.6434 667.491 49.8315 651.865 49.8315C630.969 49.8315 619.522 69.092 619.522 92.8951C619.522 116.516 630.787 137.412 651.138 137.412Z" fill="white"/>
</svg>
