<svg width="1367" height="212" viewBox="0 0 1367 212" fill="none" xmlns="http://www.w3.org/2000/svg">
<path d="M121.827 6.84852V3.47726H173.519V6.84852C157.787 6.84852 154.977 23.7048 154.977 52.9223V210.248H149.358L33.0497 25.3904V165.017C33.0497 188.334 35.8591 204.629 54.1201 204.629V208H0.460938V204.629C17.8791 204.629 23.4978 188.334 23.4978 165.017V35.5042C23.4978 17.2432 16.7553 9.09603 0.460938 6.84852V3.47726H37.8257L145.425 174.568V52.9223C145.425 23.7048 140.368 6.84852 121.827 6.84852ZM324.277 163.893H327.649L321.468 208H182.966V204.629C202.069 204.629 203.193 193.953 203.193 173.164V38.3135C203.193 17.5241 202.069 6.84852 182.966 6.84852V3.47726H317.254L320.625 42.5276H317.254C304.331 14.4338 298.712 11.3435 268.371 11.3435H218.926V97.5914H258.257C282.418 97.5914 284.946 90.287 288.879 72.307H292.25V132.709H288.879C284.946 116.414 282.418 105.458 258.257 105.458H218.926V186.649C218.926 195.639 221.735 200.134 230.163 200.134H272.866C303.207 200.134 309.107 197.043 324.277 163.893ZM524.838 37.7517L532.424 175.411C533.548 196.201 534.671 204.629 552.651 204.629V208H497.307V204.629C516.41 204.629 517.814 196.201 516.69 175.411L508.544 24.8285L442.524 208H435.781L369.761 23.9857L362.456 166.421C361.333 190.02 366.951 204.629 383.246 204.629V208H331.834V204.629C347.005 203.505 351.781 189.739 352.905 166.421L359.647 36.066C360.771 12.1863 352.343 9.09603 339.42 6.84852V3.47726H379.313L442.524 180.468L506.297 3.47726H544.222V6.84852C525.118 8.53415 523.434 13.591 524.838 37.7517ZM763.065 6.84852V3.47726H808.295V6.84852C797.619 7.97228 790.877 20.8954 780.201 55.4507L733.005 210.248H726.823L683.56 78.2067L635.799 210.248H629.62L575.398 39.4373C567.812 15.8385 561.914 7.97228 549.833 6.84852V3.47726H606.583V6.84852C587.479 7.97228 583.827 13.8719 589.445 31.852L636.924 180.749L678.784 63.317L670.917 39.4373C663.051 15.2766 658.274 7.97228 644.227 6.84852V3.47726H700.977V6.84852C682.435 7.97228 679.065 13.8719 684.964 31.852L733.005 178.782L770.93 53.2033C781.044 19.2098 784.416 7.97228 763.065 6.84852ZM892.127 211.371C838.749 211.371 803.07 170.354 803.07 106.3C803.07 43.3704 839.872 0.106018 892.688 0.106018C946.347 0.106018 982.028 41.1229 982.028 105.177C982.028 168.107 945.225 211.371 892.127 211.371ZM892.688 203.505C937.638 203.505 964.047 164.174 964.047 105.739C964.047 48.9892 937.077 7.97228 892.127 7.97228C847.458 7.97228 821.049 47.3036 821.049 105.739C821.049 162.488 848.3 203.505 892.688 203.505ZM1088.02 211.371C1034.64 211.371 998.958 170.354 998.958 106.3C998.958 43.3704 1035.76 0.106018 1088.58 0.106018C1142.24 0.106018 1177.92 41.1229 1177.92 105.177C1177.92 168.107 1141.11 211.371 1088.02 211.371ZM1088.58 203.505C1133.53 203.505 1159.94 164.174 1159.94 105.739C1159.94 48.9892 1132.97 7.97228 1088.02 7.97228C1043.35 7.97228 1016.94 47.3036 1016.94 105.739C1016.94 162.488 1044.19 203.505 1088.58 203.505ZM1264.35 208H1187.38V204.629C1206.48 204.629 1207.6 193.953 1207.6 173.164V38.3135C1207.6 17.5241 1206.48 6.84852 1187.38 6.84852V3.47726H1265.48C1330.09 3.47726 1366.33 40.842 1366.33 102.929C1366.33 166.983 1325.6 208 1264.35 208ZM1264.91 200.134C1317.73 200.134 1348.35 166.14 1348.35 104.615C1348.35 45.8989 1317.45 11.3435 1264.35 11.3435H1234.01C1227.27 11.3435 1223.34 14.7148 1223.34 21.4573V182.154C1223.34 195.639 1232.33 200.134 1264.91 200.134Z" fill="#504630"/>
</svg>
