<svg viewBox="0 0 1367 212" fill="none" xmlns="http://www.w3.org/2000/svg">
<path d="M121.829 6.8485V3.47724H173.521V6.8485C157.789 6.8485 154.979 23.7048 154.979 52.9223V210.248H149.36L33.0522 25.3904V165.017C33.0522 188.334 35.8616 204.629 54.1226 204.629V208H0.463424V204.629C17.8816 204.629 23.5003 188.334 23.5003 165.017V35.5042C23.5003 17.2432 16.7578 9.09601 0.463424 6.8485V3.47724H37.8282L145.427 174.568V52.9223C145.427 23.7048 140.37 6.8485 121.829 6.8485ZM324.279 163.893H327.651L321.47 208H182.968V204.629C202.071 204.629 203.195 193.953 203.195 173.164V38.3135C203.195 17.5241 202.071 6.8485 182.968 6.8485V3.47724H317.256L320.627 42.5276H317.256C304.333 14.4338 298.714 11.3435 268.373 11.3435H218.928V97.5914H258.259C282.42 97.5914 284.948 90.287 288.881 72.307H292.252V132.709H288.881C284.948 116.414 282.42 105.458 258.259 105.458H218.928V186.649C218.928 195.639 221.737 200.134 230.165 200.134H272.868C303.209 200.134 309.109 197.043 324.279 163.893ZM524.84 37.7517L532.426 175.411C533.55 196.201 534.673 204.629 552.653 204.629V208H497.309V204.629C516.412 204.629 517.817 196.201 516.693 175.411L508.546 24.8285L442.526 208H435.783L369.763 23.9857L362.458 166.421C361.335 190.02 366.953 204.629 383.248 204.629V208H331.836V204.629C347.007 203.505 351.783 189.739 352.907 166.421L359.649 36.066C360.773 12.1863 352.345 9.09601 339.422 6.8485V3.47724H379.315L442.526 180.468L506.299 3.47724H544.225V6.8485C525.121 8.53413 523.436 13.591 524.84 37.7517ZM763.067 6.8485V3.47724H808.298V6.8485C797.622 7.97226 790.88 20.8954 780.204 55.4507L733.007 210.248H726.826L683.562 78.2067L635.802 210.248H629.622L575.401 39.4373C567.815 15.8385 561.916 7.97226 549.835 6.8485V3.47724H606.585V6.8485C587.481 7.97226 583.829 13.8719 589.447 31.852L636.926 180.749L678.786 63.317L670.919 39.4373C663.053 15.2766 658.277 7.97226 644.23 6.8485V3.47724H700.98V6.8485C682.438 7.97226 679.067 13.8719 684.966 31.852L733.007 178.782L770.933 53.2033C781.047 19.2098 784.418 7.97226 763.067 6.8485ZM892.129 211.371C838.751 211.371 803.072 170.354 803.072 106.3C803.072 43.3704 839.875 0.105999 892.691 0.105999C946.35 0.105999 982.03 41.1229 982.03 105.177C982.03 168.107 945.227 211.371 892.129 211.371ZM892.691 203.505C937.641 203.505 964.05 164.174 964.05 105.739C964.05 48.9892 937.079 7.97226 892.129 7.97226C847.46 7.97226 821.052 47.3036 821.052 105.739C821.052 162.488 848.303 203.505 892.691 203.505ZM1088.02 211.371C1034.64 211.371 998.96 170.354 998.96 106.3C998.96 43.3704 1035.76 0.105999 1088.58 0.105999C1142.24 0.105999 1177.92 41.1229 1177.92 105.177C1177.92 168.107 1141.11 211.371 1088.02 211.371ZM1088.58 203.505C1133.53 203.505 1159.94 164.174 1159.94 105.739C1159.94 48.9892 1132.97 7.97226 1088.02 7.97226C1043.35 7.97226 1016.94 47.3036 1016.94 105.739C1016.94 162.488 1044.19 203.505 1088.58 203.505ZM1264.35 208H1187.38V204.629C1206.48 204.629 1207.6 193.953 1207.6 173.164V38.3135C1207.6 17.5241 1206.48 6.8485 1187.38 6.8485V3.47724H1265.48C1330.09 3.47724 1366.33 40.842 1366.33 102.929C1366.33 166.983 1325.6 208 1264.35 208ZM1264.91 200.134C1317.73 200.134 1348.35 166.14 1348.35 104.615C1348.35 45.8989 1317.45 11.3435 1264.35 11.3435H1234.01C1227.27 11.3435 1223.34 14.7148 1223.34 21.4573V182.154C1223.34 195.639 1232.33 200.134 1264.91 200.134Z" fill="#FFFCF5"/>
</svg>
