<svg  viewBox="0 0 535 535" fill="none" xmlns="http://www.w3.org/2000/svg">
<path d="M3 2.5H266.258C266.39 2.50012 266.518 2.55283 266.611 2.64648L385.444 121.479C388.909 124.944 394.833 122.491 394.833 117.591V3C394.833 2.72397 395.057 2.50018 395.333 2.5H532C532.276 2.5 532.5 2.72386 532.5 3V139.667C532.5 139.943 532.276 140.167 532 140.167H417.409C412.509 140.167 410.056 146.091 413.521 149.556L532.354 268.389C532.447 268.482 532.5 268.61 532.5 268.742V532C532.5 532.276 532.276 532.5 532 532.5H268.742C268.61 532.5 268.482 532.447 268.389 532.354L149.556 413.521C146.091 410.056 140.167 412.509 140.167 417.409V532C140.167 532.276 139.943 532.5 139.667 532.5H3C2.72386 532.5 2.5 532.276 2.5 532V395.333C2.50018 395.057 2.72397 394.833 3 394.833H117.591C122.491 394.833 124.944 388.909 121.479 385.444L2.64648 266.611C2.55282 266.518 2.50012 266.39 2.5 266.258V3C2.5 2.72385 2.72386 2.5 3 2.5Z" stroke="#504630" stroke-width="5"/>
</svg>
