<svg  viewBox="0 0 185 27" fill="none" xmlns="http://www.w3.org/2000/svg">
<path d="M12.3389 1.96558C12.4091 1.96558 12.4764 1.99347 12.5261 2.04311L17.806 7.32301C17.9727 7.48977 18.2579 7.37167 18.2579 7.13583V2.23029C18.2579 2.08409 18.3764 1.96558 18.5226 1.96558H24.6324C24.7786 1.96558 24.8971 2.08409 24.8971 2.23029V8.34009C24.8971 8.48629 24.7786 8.6048 24.6324 8.6048H19.7269C19.491 8.6048 19.3729 8.88994 19.5397 9.05669L24.8196 14.3366C24.8692 14.3862 24.8971 14.4536 24.8971 14.5238V26.598C24.8971 26.7442 24.7786 26.8627 24.6324 26.8627H12.5582C12.488 26.8627 12.4207 26.8348 12.371 26.7852L7.09112 21.5052C6.92436 21.3385 6.63923 21.4566 6.63923 21.6924V26.598C6.63923 26.7442 6.52071 26.8627 6.37452 26.8627H0.264711C0.118515 26.8627 0 26.7442 0 26.598V20.4882C0 20.342 0.118515 20.2235 0.264711 20.2235H5.17026C5.40609 20.2235 5.52419 19.9383 5.35744 19.7716L0.077532 14.4917C0.0278892 14.442 0 14.3747 0 14.3045V2.23029C0 2.08409 0.118515 1.96558 0.264711 1.96558H12.3389Z" fill="#FFFCF5"/>
<path d="M43.3134 6.96254C46.7331 6.96254 49.4329 8.97801 49.4329 13.2655V26.2011H45.6172V14.3648C45.6172 11.8363 44.5733 10.2239 41.9815 10.2239C39.0657 10.2239 37.1938 12.0195 37.1938 14.8046V26.2011H33.4141V7.47557H37.1938V9.89414H37.2658C38.2377 8.42834 40.1456 6.96254 43.3134 6.96254Z" fill="#FFFCF5"/>
<path d="M61.0247 23.5993C64.1565 23.5993 65.4164 21.6205 65.7404 20.4845H69.5201C68.5842 24.0391 65.8484 26.7508 61.1327 26.7508C55.4091 26.7508 51.9173 22.7199 51.9173 16.8567C51.9173 10.7736 55.4091 6.96254 60.9527 6.96254C66.8923 6.96254 69.8081 11.1767 69.8081 17.8461H55.6971C55.6971 20.9976 57.6769 23.5993 61.0247 23.5993ZM60.9527 10.0041C57.8929 10.0041 55.6971 12.0928 55.6971 14.9878H66.0283C66.0283 12.0928 64.0125 10.0041 60.9527 10.0041Z" fill="#FFFCF5"/>
<path d="M92.7022 6.96254C96.4099 6.96254 98.3178 9.23453 98.3178 13.2655V26.2011H94.5021V14.3648C94.5021 11.8363 93.9981 10.2239 91.4063 10.2239C88.8505 10.2239 87.2666 12.0195 87.2666 14.8046V26.2011H83.4508V14.3648C83.4508 11.8363 82.9469 10.2239 80.3191 10.2239C77.7992 10.2239 76.1793 12.0195 76.1793 14.8046V26.2011H72.3996V7.47557H76.1793V9.89414H76.2513C77.2233 8.42834 78.9512 6.96254 81.723 6.96254C84.3148 6.96254 85.8627 8.17182 86.6186 10.1873H86.6906C88.0585 8.39169 89.8584 6.96254 92.7022 6.96254Z" fill="#FFFCF5"/>
<path d="M99.7439 7.47557H103.74L107.483 21.6938H107.555L111.299 7.47557H115.007L118.787 21.6938H118.859L122.566 7.47557H126.562L120.946 26.2011H117.131L113.171 11.9096H113.099L109.175 26.2011H105.396L99.7439 7.47557Z" fill="#FFFCF5"/>
<path d="M136.292 26.7508C130.533 26.7508 127.041 22.6832 127.041 16.8567C127.041 11.0301 130.533 6.96254 136.292 6.96254C142.052 6.96254 145.544 11.0301 145.544 16.8567C145.544 22.6832 142.052 26.7508 136.292 26.7508ZM136.292 23.5993C139.892 23.5993 141.764 20.7044 141.764 16.8567C141.764 12.9723 139.892 10.114 136.292 10.114C132.693 10.114 130.821 12.9723 130.821 16.8567C130.821 20.7044 132.693 23.5993 136.292 23.5993Z" fill="#FFFCF5"/>
<path d="M156.435 26.7508C150.676 26.7508 147.184 22.6832 147.184 16.8567C147.184 11.0301 150.676 6.96254 156.435 6.96254C162.195 6.96254 165.687 11.0301 165.687 16.8567C165.687 22.6832 162.195 26.7508 156.435 26.7508ZM156.435 23.5993C160.035 23.5993 161.907 20.7044 161.907 16.8567C161.907 12.9723 160.035 10.114 156.435 10.114C152.836 10.114 150.964 12.9723 150.964 16.8567C150.964 20.7044 152.836 23.5993 156.435 23.5993Z" fill="#FFFCF5"/>
<path d="M181.222 0H185.002V26.2011H181.222V24.0391H181.15C180.178 25.3217 178.378 26.7508 175.535 26.7508C170.819 26.7508 167.327 23.013 167.327 16.8567C167.327 10.7003 170.819 6.96254 175.535 6.96254C178.378 6.96254 180.178 8.3184 181.15 9.74756H181.222V0ZM176.183 23.5993C179.278 23.5993 181.186 20.9976 181.186 16.8567C181.186 12.6792 179.278 10.114 176.183 10.114C172.871 10.114 171.107 13.1922 171.107 16.8567C171.107 20.5212 172.871 23.5993 176.183 23.5993Z" fill="#FFFCF5"/>
</svg>
