<svg width="692" height="238" viewBox="0 0 692 238" fill="none" xmlns="http://www.w3.org/2000/svg">
<path d="M131.674 110.576L131.674 146.404C131.674 154.896 132.072 159.408 137.513 159.408V161H115.087V159.408C120.528 159.408 120.926 154.896 120.926 146.404L120.926 113.495C120.926 103.411 117.741 97.5722 108.453 97.5722C102.614 97.5722 96.2449 100.624 90.5391 105.136L90.5391 146.404C90.5391 154.896 90.9371 159.408 96.3776 159.408L96.3776 161H73.9523L73.9523 159.408C79.3928 159.408 79.7908 154.896 79.7908 146.404L79.7908 108.984C79.7908 100.491 77.535 97.7049 73.0234 96.5106L73.0234 94.9183L89.4775 90.1413H90.5391L90.5391 101.553C97.5719 94.7856 106.197 89.8759 114.822 89.8759C125.172 89.8759 131.674 97.1741 131.674 110.576Z" fill="#38302A"/>
<path d="M195.327 144.281L197.716 145.74C193.071 153.171 184.977 162.592 170.911 162.592C153.263 162.592 142.515 147.067 142.515 127.428C142.515 105.401 156.713 89.8759 173.963 89.8759C188.294 89.8759 198.644 100.226 197.583 117.742L154.059 117.742C153.926 119.334 153.794 120.926 153.794 122.651C153.794 141.096 161.225 155.294 175.954 155.294C184.977 155.294 191.081 149.588 195.327 144.281ZM173.433 93.326C163.215 93.326 156.713 102.084 154.59 113.761L186.171 113.761C187.1 100.624 183.119 93.326 173.433 93.326Z" fill="#38302A"/>
<path d="M298.438 110.576L298.438 146.404C298.438 154.896 298.836 159.408 304.276 159.408V161H281.851V159.408C287.291 159.408 287.69 154.896 287.69 146.404V113.495C287.69 103.411 284.505 97.5722 275.216 97.5722C269.378 97.5722 263.539 100.757 258.364 105.268C258.629 106.993 258.762 108.718 258.762 110.576V146.404C258.762 154.896 259.16 159.408 264.601 159.408V161H242.175V159.408C247.616 159.408 248.014 154.896 248.014 146.404V113.495C248.014 103.411 244.829 97.5722 235.673 97.5722C229.835 97.5722 224.262 100.624 219.087 105.003L219.087 146.404C219.087 154.896 219.485 159.408 224.925 159.408V161H202.5V159.408C207.94 159.408 208.338 154.896 208.338 146.404L208.338 108.984C208.338 100.491 206.083 97.7049 201.571 96.5106V94.9183L218.025 90.1413H219.087V101.42C225.589 94.7856 233.418 89.8759 241.91 89.8759C250.004 89.8759 255.578 94.2548 257.833 102.349C264.468 95.1837 272.695 89.8759 281.586 89.8759C291.936 89.8759 298.438 97.1741 298.438 110.576Z" fill="#38302A"/>
<path d="M381.158 93.0606V91.4683L399.47 91.4683V93.0606C395.489 93.8568 392.172 97.9703 387.262 112.832L370.808 162.327H368.154L351.7 114.292L334.317 162.327H331.663L312.29 107.259C308.707 96.9087 306.451 93.8568 301.94 93.0606V91.4683L325.957 91.4683V93.0606C319.986 93.5914 320.119 96.9087 322.375 103.676L336.573 144.944L349.577 108.32L349.179 107.126C345.596 96.9087 343.208 93.8568 338.696 93.0606V91.4683L362.581 91.4683V93.0606C356.477 93.5914 356.875 96.9087 359.264 103.676L372.931 144.281L383.414 111.903C387.926 98.2357 387.395 93.7241 381.158 93.0606Z" fill="#38302A"/>
<path d="M429.26 162.592C410.417 162.592 397.148 148.792 397.148 126.5C397.148 104.472 410.948 89.876 429.525 89.876C448.235 89.876 461.504 103.676 461.504 125.969C461.504 147.996 447.704 162.592 429.26 162.592ZM429.525 159.142C442.927 159.142 449.827 146.271 449.827 126.234C449.827 106.994 442.662 93.326 429.26 93.326C415.858 93.326 408.825 106.197 408.825 126.234C408.825 145.475 416.123 159.142 429.525 159.142Z" fill="#38302A"/>
<path d="M500.013 162.592C481.17 162.592 467.901 148.792 467.901 126.5C467.901 104.472 481.701 89.876 500.278 89.876C518.988 89.876 532.257 103.676 532.257 125.969C532.257 147.996 518.457 162.592 500.013 162.592ZM500.278 159.142C513.68 159.142 520.58 146.271 520.58 126.234C520.58 106.994 513.415 93.326 500.013 93.326C486.611 93.326 479.578 106.197 479.578 126.234C479.578 145.475 486.876 159.142 500.278 159.142Z" fill="#38302A"/>
<path d="M597.437 57.2332V144.413C597.437 152.906 599.56 156.09 604.205 157.417V159.01L590.006 162.592H588.945L587.087 151.181C581.647 157.815 574.348 162.592 565.193 162.592C549.535 162.592 538.654 147.863 538.654 127.561C538.654 104.34 553.25 89.876 570.898 89.876C577.002 89.876 582.31 91.601 586.689 94.2549V75.0142C586.689 66.5218 584.433 63.7352 579.922 62.541V60.9486L596.376 57.2332L597.437 57.2332ZM570.368 156.09C577.135 156.09 582.576 152.242 586.689 147.465V112.169C586.689 100.359 580.718 93.326 570.766 93.326C556.833 93.326 550.198 107.126 550.198 124.376C550.198 141.494 556.965 156.09 570.368 156.09Z" fill="#38302A"/>
<path d="M622.037 44C619.854 44 617.72 44.6472 615.906 45.8598C614.091 47.0724 612.676 48.796 611.841 50.8124C611.006 52.8289 610.787 55.0478 611.213 57.1885C611.639 59.3292 612.69 61.2955 614.233 62.8389C615.777 64.3822 617.743 65.4333 619.884 65.8591C622.024 66.2849 624.243 66.0664 626.26 65.2311C628.276 64.3958 630 62.9814 631.212 61.1666C632.425 59.3518 633.072 57.2182 633.072 55.0356C633.069 52.1097 631.905 49.3046 629.836 47.2357C627.768 45.1668 624.962 44.0031 622.037 44ZM622.037 64.3734C620.19 64.3734 618.384 63.8257 616.849 62.7997C615.313 61.7736 614.116 60.3152 613.41 58.609C612.703 56.9027 612.518 55.0252 612.878 53.2139C613.239 51.4025 614.128 49.7387 615.434 48.4328C616.74 47.1268 618.403 46.2375 620.215 45.8772C622.026 45.5169 623.904 45.7018 625.61 46.4086C627.316 47.1153 628.775 48.3122 629.801 49.8478C630.827 51.3834 631.374 53.1887 631.374 55.0356C631.372 57.5112 630.387 59.8847 628.636 61.6353C626.886 63.3858 624.512 64.3705 622.037 64.3734ZM624.487 56.3312C625.154 55.974 625.682 55.4043 625.989 54.7124C626.295 54.0206 626.361 53.2462 626.177 52.5123C625.993 51.7784 625.57 51.1269 624.973 50.6613C624.377 50.1957 623.642 49.9426 622.885 49.9422H619.49C619.265 49.9422 619.049 50.0317 618.89 50.1909C618.73 50.3501 618.641 50.566 618.641 50.7911V59.28C618.641 59.5052 618.73 59.7211 618.89 59.8803C619.049 60.0395 619.265 60.1289 619.49 60.1289C619.715 60.1289 619.931 60.0395 620.09 59.8803C620.249 59.7211 620.339 59.5052 620.339 59.28V56.7333H622.715L624.731 59.7511C624.856 59.9386 625.05 60.0687 625.271 60.1129C625.492 60.157 625.721 60.1117 625.909 59.9867C626.096 59.8618 626.226 59.6675 626.27 59.4466C626.314 59.2257 626.269 58.9963 626.144 58.8089L624.487 56.3312ZM620.339 51.64H622.885C623.336 51.64 623.768 51.8189 624.086 52.1373C624.404 52.4557 624.583 52.8875 624.583 53.3378C624.583 53.7881 624.404 54.2199 624.086 54.5383C623.768 54.8567 623.336 55.0356 622.885 55.0356H620.339V51.64Z" fill="#38302A"/>
</svg>
